<svg xmlns="http://www.w3.org/2000/svg"  viewBox="0 0 53 53" width="66px" height="66px"><path d="M 13.302734 2.5175781 C 11.09668 2.517578 9.3027344 4.3120117 9.3027344 6.5175781 L 9.3027344 17.470703 L 4.3261719 21.234375 C 3.1619814 22.108683 2.5214844 23.534683 2.5214844 24.855469 L 2.5214844 45.929688 C 2.5214844 48.403835 4.5392065 50.482422 7.0722656 50.482422 L 45.927734 50.482422 C 48.538437 50.482422 50.478516 48.306717 50.478516 45.929688 L 50.478516 24.855469 C 50.478516 23.531347 49.848663 22.115807 48.675781 21.234375 L 43.701172 17.474609 L 43.701172 6.5175781 C 43.701172 4.3120117 41.907227 2.5175781 39.701172 2.5175781 L 13.302734 2.5175781 z M 13.302734 4.5175781 L 39.701172 4.5175781 C 40.803711 4.5175781 41.701172 5.4145508 41.701172 6.5175781 L 41.701172 9.3417969 L 11.302734 9.3417969 L 11.302734 6.5175781 C 11.302734 5.4145508 12.200195 4.5175781 13.302734 4.5175781 z M 15.816406 5.8808594 C 15.263672 5.8808594 14.765625 6.3774415 14.765625 6.9296875 C 14.765625 7.4819335 15.263672 7.9785156 15.816406 7.9785156 C 16.369141 7.9785156 16.865234 7.4819335 16.865234 6.9296875 C 16.865234 6.3774415 16.369141 5.8808594 15.816406 5.8808594 z M 19.433594 5.8808594 C 18.880859 5.8808594 18.380859 6.3774415 18.380859 6.9296875 C 18.380859 7.4819335 18.880859 7.9785156 19.433594 7.9785156 C 19.986328 7.9785156 20.480469 7.4819335 20.480469 6.9296875 C 20.480469 6.3774415 19.986328 5.8808594 19.433594 5.8808594 z M 23.048828 5.8808594 C 22.496094 5.8808594 21.998047 6.3774415 21.998047 6.9296875 C 21.998047 7.4819335 22.496094 7.9785156 23.048828 7.9785156 C 23.601563 7.9785156 24.097656 7.4819335 24.097656 6.9296875 C 24.097656 6.3774415 23.601563 5.8808594 23.048828 5.8808594 z M 27.427734 5.9296875 C 26.875 5.9296875 26.427734 6.3774414 26.427734 6.9296875 C 26.427734 7.4819336 26.875 7.9296875 27.427734 7.9296875 L 37.238281 7.9296875 C 37.791016 7.9296875 38.238281 7.4819336 38.238281 6.9296875 C 38.238281 6.3774414 37.791016 5.9296875 37.238281 5.9296875 L 27.427734 5.9296875 z M 11.302734 11.341797 L 41.701172 11.341797 C 41.700973 13.019393 41.701897 5.2735725 41.699219 27.710938 C 40.743423 28.436554 45.150566 25.091019 32.412109 34.761719 L 29.310547 32.40625 C 27.658203 31.169434 25.347656 31.168945 23.6875 32.410156 C 23.586679 32.486671 20.389198 34.913998 20.589844 34.761719 L 11.302734 27.730469 L 11.302734 11.341797 z M 26.501953 13.341797 C 22.052734 13.341797 18.433594 16.961426 18.433594 21.410156 C 18.433594 25.858887 22.052734 29.478516 26.501953 29.478516 C 30.950195 29.478516 34.568359 25.858887 34.568359 21.410156 C 34.568359 16.961426 30.950195 13.341797 26.501953 13.341797 z M 26.501953 15.341797 C 29.847656 15.341797 32.568359 18.064453 32.568359 21.410156 C 32.568359 24.755859 29.847656 27.478516 26.501953 27.478516 C 23.15625 27.478516 20.433594 24.755859 20.433594 21.410156 C 20.433594 18.064453 23.15625 15.341797 26.501953 15.341797 z M 29.501953 18.458984 C 29.246094 18.458984 28.990234 18.556641 28.794922 18.751953 L 25.394531 22.154297 L 24.207031 20.964844 C 23.816406 20.574219 23.183594 20.574219 22.792969 20.964844 C 22.402344 21.355469 22.402344 21.988281 22.792969 22.378906 L 24.333984 23.919922 C 24.625977 24.212402 25.010742 24.359375 25.394531 24.359375 C 25.779297 24.359375 26.163086 24.212402 26.455078 23.919922 L 30.208984 20.166016 C 30.599609 19.775391 30.599609 19.142578 30.208984 18.751953 C 30.013672 18.556641 29.757812 18.458984 29.501953 18.458984 z M 9.2988281 19.980469 L 9.2988281 26.212891 L 5.2167969 23.123047 C 5.3145142 23.018127 5.4158935 22.91626 5.53125 22.830078 L 9.2988281 19.980469 z M 43.701172 19.982422 C 47.634685 22.978683 47.459629 22.77359 47.783203 23.121094 L 43.701172 26.199219 L 43.701172 19.982422 z M 48.478516 25.099609 L 48.478516 45.931641 C 48.478516 46.238403 48.4245 46.531006 48.320312 46.808594 L 34.066406 36.015625 C 60.216091 16.167608 24.183924 43.498764 48.478516 25.099609 z M 4.5214844 25.105469 C 24.27796 40.066334 17.453236 34.898037 18.931641 36.017578 L 4.6777344 46.808594 C 4.574646 46.532043 4.5214844 46.238831 4.5214844 45.931641 L 4.5214844 25.105469 z M 26.507812 33.480469 C 27.075978 33.482582 27.641822 33.662014 28.107422 34.011719 L 46.935547 48.269531 C 46.586781 48.421406 46.244942 48.482422 45.927734 48.482422 L 7.0722656 48.482422 C 6.7415113 48.482422 6.4024067 48.417149 6.0644531 48.269531 L 24.888672 34.013672 C 25.369162 33.652586 25.939647 33.478356 26.507812 33.480469 z M 14.210938 44.652344 C 13.658203 44.652344 13.210938 45.100098 13.210938 45.652344 C 13.210938 46.20459 13.658203 46.652344 14.210938 46.652344 L 16.632812 46.652344 C 17.185547 46.652344 17.632812 46.20459 17.632812 45.652344 C 17.632812 45.100098 17.185547 44.652344 16.632812 44.652344 L 14.210938 44.652344 z M 21.460938 44.652344 C 20.908203 44.652344 20.460938 45.100098 20.460938 45.652344 C 20.460938 46.20459 20.908203 46.652344 21.460938 46.652344 L 30.556641 46.652344 C 31.109375 46.652344 31.556641 46.20459 31.556641 45.652344 C 31.556641 45.100098 31.109375 44.652344 30.556641 44.652344 L 21.460938 44.652344 z"/></svg>