<svg xmlns="http://www.w3.org/2000/svg"  viewBox="0 0 80 80" width="80px" height="80px"><path d="M 25 8 C 22.25 8 20 10.25 20 13 L 20 67 C 20 69.75 22.25 72 25 72 L 55 72 C 57.75 72 60 69.75 60 67 L 60 13 C 60 10.25 57.75 8 55 8 Z M 25 10 L 55 10 C 56.667969 10 58 11.332031 58 13 L 58 16 L 22 16 L 22 13 C 22 11.332031 23.332031 10 25 10 Z M 36 12 C 35.640625 11.996094 35.304688 12.183594 35.121094 12.496094 C 34.941406 12.808594 34.941406 13.191406 35.121094 13.503906 C 35.304688 13.816406 35.640625 14.003906 36 14 L 44 14 C 44.359375 14.003906 44.695313 13.816406 44.878906 13.503906 C 45.058594 13.191406 45.058594 12.808594 44.878906 12.496094 C 44.695313 12.183594 44.359375 11.996094 44 12 Z M 31.949219 12 C 31.398438 12 30.949219 12.449219 30.949219 13 C 30.945313 13.550781 31.394531 14 31.945313 14 C 32.210938 14.003906 32.464844 13.898438 32.652344 13.710938 C 32.839844 13.523438 32.949219 13.265625 32.949219 13 C 32.949219 12.449219 32.5 12.003906 31.949219 12 Z M 22 18 L 58 18 L 58 60 L 22 60 Z M 26 20 C 25.449219 20 25 20.449219 25 21 C 25 21.550781 25.449219 22 26 22 C 26.550781 22 27 21.550781 27 21 C 27 20.449219 26.550781 20 26 20 Z M 26 24 C 25.449219 24 25 24.449219 25 25 C 25 25.550781 25.449219 26 26 26 C 26.550781 26 27 25.550781 27 25 C 27 24.449219 26.550781 24 26 24 Z M 26 28 C 25.449219 28 25 28.449219 25 29 C 25 29.550781 25.449219 30 26 30 C 26.550781 30 27 29.550781 27 29 C 27 28.449219 26.550781 28 26 28 Z M 26 32 C 25.449219 32 25 32.449219 25 33 C 25 33.550781 25.449219 34 26 34 C 26.550781 34 27 33.550781 27 33 C 27 32.449219 26.550781 32 26 32 Z M 26 36 C 25.449219 36 25 36.449219 25 37 C 25 37.550781 25.449219 38 26 38 C 26.550781 38 27 37.550781 27 37 C 27 36.449219 26.550781 36 26 36 Z M 26 40 C 25.449219 40 25 40.449219 25 41 C 25 41.550781 25.449219 42 26 42 C 26.550781 42 27 41.550781 27 41 C 27 40.449219 26.550781 40 26 40 Z M 26 44 C 25.449219 44 25 44.449219 25 45 C 25 45.550781 25.449219 46 26 46 C 26.550781 46 27 45.550781 27 45 C 27 44.449219 26.550781 44 26 44 Z M 26 48 C 25.449219 48 25 48.449219 25 49 C 25 49.550781 25.449219 50 26 50 C 26.550781 50 27 49.550781 27 49 C 27 48.449219 26.550781 48 26 48 Z M 26 52 C 25.449219 52 25 52.449219 25 53 C 25 53.550781 25.449219 54 26 54 C 26.550781 54 27 53.550781 27 53 C 27 52.449219 26.550781 52 26 52 Z M 26 56 C 25.449219 56 25 56.449219 25 57 C 25 57.550781 25.449219 58 26 58 C 26.550781 58 27 57.550781 27 57 C 27 56.449219 26.550781 56 26 56 Z M 22 62 L 58 62 L 58 67 C 58 68.667969 56.667969 70 55 70 L 25 70 C 23.332031 70 22 68.667969 22 67 Z M 40 64 C 38.894531 64 38 64.894531 38 66 C 38 67.105469 38.894531 68 40 68 C 41.105469 68 42 67.105469 42 66 C 42 64.894531 41.105469 64 40 64 Z"/></svg>